<?xml version="1.0" standalone="no"?>
<!DOCTYPE svg PUBLIC "-//W3C//DTD SVG 20010904//EN"
 "http://www.w3.org/TR/2001/REC-SVG-20010904/DTD/svg10.dtd">
<svg version="1.0" xmlns="http://www.w3.org/2000/svg"
 width="1024.000000pt" height="1024.000000pt" viewBox="0 0 1024.000000 1024.000000"
 preserveAspectRatio="xMidYMid meet">

<g transform="translate(0.000000,1024.000000) scale(0.100000,-0.100000)"
fill="#000000" stroke="none">
<path d="M5425 8170 c-27 -11 -72 -38 -98 -60 -80 -66 -128 -70 -222 -21 -29
16 -57 21 -110 21 -330 -1 -634 -315 -1078 -1115 -86 -154 -86 -166 -11 -271
151 -212 373 -432 566 -562 243 -164 530 -240 802 -212 136 14 204 32 302 80
101 49 171 117 216 207 29 59 33 79 36 159 6 145 -19 212 -172 463 -80 132
-81 135 -81 200 0 63 5 76 102 281 141 299 148 319 148 460 0 108 -2 119 -31
180 -42 86 -93 143 -158 175 -73 35 -147 41 -211 15z m203 -524 c5 -39 -24
-111 -61 -153 -54 -62 -125 -87 -347 -122 -172 -28 -690 -92 -709 -89 -11 3 1
22 44 67 118 124 255 216 368 245 32 8 122 20 200 26 130 10 408 45 432 55 6
2 24 3 40 2 25 -2 31 -7 33 -31z m-802 -711 c221 -38 365 -106 497 -236 95
-94 105 -118 63 -158 -36 -34 -144 -69 -251 -83 -154 -18 -362 16 -560 92
-107 42 -299 138 -386 195 -68 44 -70 47 -55 64 42 46 212 114 329 131 90 13
271 11 363 -5z"/>
<path d="M6960 7691 c-124 -71 -299 -171 -389 -222 -92 -53 -174 -106 -185
-121 -19 -27 -19 -29 -3 -63 29 -62 43 -57 495 169 224 112 414 211 420 219 7
8 15 30 18 49 5 27 1 41 -21 66 -22 27 -34 32 -68 32 -35 -1 -80 -22 -267
-129z"/>
<path d="M7179 7106 c-2 -2 -121 -7 -264 -10 -365 -10 -460 -18 -485 -41 -26
-24 -27 -78 0 -105 18 -18 34 -20 188 -21 92 0 296 -1 454 -2 l286 -2 26 24
c39 37 37 100 -5 135 -27 23 -39 26 -113 26 -46 0 -85 -2 -87 -4z"/>
<path d="M6381 6734 c-45 -57 -27 -76 181 -200 391 -233 593 -344 626 -344 41
0 92 46 92 84 0 59 -16 71 -234 184 -373 194 -595 302 -620 302 -15 0 -33 -11
-45 -26z"/>
<path d="M2070 5025 c-196 -55 -309 -225 -278 -419 10 -68 27 -105 73 -161 45
-55 122 -99 273 -155 71 -26 143 -55 160 -64 70 -36 92 -106 48 -151 -30 -29
-78 -39 -164 -32 -56 4 -85 14 -174 60 -71 36 -115 53 -129 50 -30 -8 -131
-168 -127 -201 7 -59 180 -149 338 -178 100 -18 165 -17 258 2 144 29 253 112
311 234 23 48 26 68 26 155 0 83 -4 107 -21 140 -50 93 -158 166 -324 220
-201 65 -274 132 -225 202 8 12 35 29 60 39 68 26 150 14 252 -36 80 -40 107
-46 130 -32 15 9 103 153 103 168 0 39 -97 102 -220 144 -87 29 -289 37 -370
15z"/>
<path d="M6581 5020 c-193 -51 -339 -189 -407 -385 -26 -74 -28 -92 -28 -230
0 -136 3 -158 27 -232 64 -193 215 -334 418 -389 88 -24 280 -24 368 0 104 28
239 104 261 147 6 11 8 29 4 41 -9 29 -153 178 -173 178 -9 0 -40 -16 -69 -36
-71 -47 -122 -64 -196 -64 -166 0 -277 104 -307 288 -15 88 -1 190 35 261 86
169 297 211 457 91 30 -22 61 -40 69 -40 28 0 170 166 170 198 0 25 -83 97
-152 131 -126 62 -329 79 -477 41z"/>
<path d="M2897 5002 c-15 -17 -17 -73 -17 -599 0 -549 1 -581 18 -596 15 -14
41 -17 139 -17 161 0 153 -11 153 208 l0 172 113 0 c287 0 418 50 501 192 73
124 73 350 1 473 -31 54 -105 122 -158 144 -82 35 -142 41 -441 41 -271 0
-294 -1 -309 -18z m573 -270 c66 -33 91 -141 51 -228 -28 -61 -63 -74 -210
-74 l-121 0 0 160 0 160 123 0 c96 0 129 -4 157 -18z"/>
<path d="M4054 4999 c-18 -20 -19 -45 -20 -568 0 -300 3 -563 7 -585 4 -21 13
-42 20 -47 24 -15 243 -11 265 5 18 13 19 28 19 211 l0 196 59 -3 60 -3 102
-199 c56 -109 108 -202 115 -207 8 -5 73 -9 146 -9 106 0 135 3 147 16 9 8 16
21 16 27 -1 7 -50 102 -110 211 l-109 200 58 38 c123 80 181 213 168 383 -12
163 -113 285 -278 336 -54 17 -94 19 -353 19 -285 0 -293 -1 -312 -21z m544
-254 c51 -21 72 -59 72 -130 0 -118 -41 -147 -210 -153 l-115 -4 0 151 0 151
107 0 c73 0 120 -5 146 -15z"/>
<path d="M5210 5000 c-20 -20 -20 -33 -20 -593 0 -502 2 -575 16 -595 l15 -22
380 0 c453 0 419 -10 419 128 0 140 16 132 -271 132 l-239 0 0 120 0 120 189
0 c228 0 232 2 239 98 5 70 -1 104 -24 126 -13 13 -47 16 -210 16 l-194 0 0
115 0 115 228 0 c286 0 272 -7 272 129 0 82 -3 101 -18 114 -17 15 -58 17
-390 17 -359 0 -373 -1 -392 -20z"/>
<path d="M7420 5000 c-20 -20 -20 -33 -20 -593 0 -502 2 -575 16 -595 14 -21
22 -22 142 -22 70 0 132 4 138 8 29 19 34 55 34 266 l0 216 215 0 215 0 0
-216 c0 -211 5 -247 34 -266 6 -4 65 -8 132 -8 105 0 123 2 137 18 15 17 17
73 17 600 l0 581 -22 15 c-17 12 -50 16 -140 16 -167 0 -158 15 -158 -250 l0
-210 -217 0 -218 0 0 209 c0 266 10 251 -162 251 -110 0 -125 -2 -143 -20z"/>
<path d="M7242 3510 c-207 -56 -346 -199 -371 -382 -28 -201 67 -367 262 -458
45 -21 136 -57 202 -80 182 -63 240 -104 252 -173 12 -78 -51 -120 -182 -119
-98 0 -193 30 -306 97 -43 25 -85 45 -93 45 -8 0 -26 -10 -40 -22 -34 -30
-146 -206 -146 -229 0 -53 176 -157 335 -199 114 -30 296 -38 399 -16 119 24
199 67 282 150 105 106 152 222 141 350 -8 96 -41 169 -106 235 -69 69 -152
114 -331 176 -220 76 -285 121 -285 196 0 33 6 46 32 69 75 67 218 61 370 -16
94 -47 141 -55 165 -26 32 36 118 187 118 206 0 50 -151 143 -301 186 -111 32
-300 37 -397 10z"/>
<path d="M2373 3476 l-28 -24 0 -712 0 -712 29 -25 c28 -24 31 -24 178 -21
204 4 188 -22 188 309 l0 259 215 0 c253 0 277 6 294 67 24 85 8 223 -29 243
-11 6 -113 10 -249 10 l-231 0 0 150 0 150 285 0 c352 0 325 -13 325 159 0
102 -3 122 -19 142 l-19 24 -455 3 -455 3 -29 -25z"/>
<path d="M3879 3486 c-21 -12 -38 -49 -98 -218 -40 -112 -153 -419 -251 -683
-98 -264 -183 -498 -188 -519 -10 -34 -9 -40 13 -62 23 -23 29 -24 167 -24 95
0 151 5 168 13 20 10 34 38 69 140 l44 127 268 0 267 0 37 -111 c20 -61 47
-122 60 -137 23 -27 24 -27 175 -30 165 -4 193 3 206 52 7 29 -508 1410 -537
1441 -18 18 -34 20 -197 22 -139 2 -183 0 -203 -11z m356 -913 l5 -23 -165 0
c-114 0 -165 3 -165 11 0 6 37 124 82 263 l81 251 78 -240 c43 -132 81 -250
84 -262z"/>
<path d="M5103 3490 c-12 -5 -26 -18 -32 -29 -8 -13 -11 -245 -11 -726 l0
-706 25 -24 c23 -24 28 -25 170 -25 142 0 147 1 170 25 l25 24 0 709 c0 684
-1 711 -19 733 -18 23 -25 24 -163 26 -78 1 -153 -2 -165 -7z"/>
<path d="M5783 3490 c-12 -5 -26 -18 -32 -29 -8 -13 -11 -244 -11 -721 l0
-702 29 -29 29 -29 421 0 420 0 28 24 c28 24 28 25 28 149 0 180 23 167 -296
167 l-259 0 -2 566 -3 566 -28 24 c-27 23 -34 24 -165 23 -75 0 -147 -4 -159
-9z"/>
</g>
</svg>
